<svg xmlns="http://www.w3.org/2000/svg" xmlns:xlink="http://www.w3.org/1999/xlink" width="1500" zoomAndPan="magnify" viewBox="0 0 1125 1124.99995" height="1500" preserveAspectRatio="xMidYMid meet" version="1.0"><defs><clipPath id="d8ccc58f5e"><path d="M 121 0 L 1020.75 0 L 1020.75 1125 L 121 1125 Z M 121 0 " clip-rule="nonzero"/></clipPath></defs><g clip-path="url(#d8ccc58f5e)"><path fill="#ffffff" d="M 930.414062 450.050781 C 912.230469 450.050781 894.835938 455.402344 880.011719 465.371094 C 867.648438 430.296875 834 405.074219 794.535156 405.074219 C 776.414062 405.074219 758.976562 410.445312 743.976562 420.480469 C 731.65625 385.363281 698.054688 360.09375 658.652344 360.09375 C 642.402344 360.09375 626.808594 364.324219 613.105469 372.261719 L 613.105469 238.25 C 643.285156 212.652344 661.113281 175.046875 661.113281 135.199219 C 661.113281 60.792969 600.585938 0.265625 526.175781 0.265625 C 451.769531 0.265625 391.238281 60.792969 391.238281 135.199219 C 391.238281 171.851562 406.144531 206.433594 432.242188 231.859375 L 432.242188 678.132812 C 432.242188 678.132812 280.15625 571.882812 280.101562 571.84375 C 231.050781 537.578125 161.40625 552.925781 130.898438 604.164062 C 112.515625 635.0625 121.433594 674.925781 151.191406 694.910156 C 214.90625 737.738281 272.765625 788.886719 323.144531 846.933594 L 385.53125 918.796875 C 397.992188 933.160156 412.882812 944.753906 429.785156 953.253906 C 463.925781 970.472656 485.128906 1005.105469 485.128906 1043.605469 L 485.128906 1102.246094 C 485.128906 1114.675781 495.199219 1124.734375 507.617188 1124.734375 L 930.414062 1124.734375 C 942.847656 1124.734375 952.90625 1114.675781 952.90625 1102.246094 L 952.90625 985.296875 C 952.90625 967.417969 961.84375 950.925781 976.910156 941.109375 C 1004.472656 922.96875 1020.945312 892.417969 1020.945312 859.363281 L 1020.945312 540.011719 C 1020.945312 490.410156 980.335938 450.050781 930.414062 450.050781 Z M 526.175781 45.242188 C 575.777344 45.242188 616.132812 85.597656 616.132812 135.199219 C 616.132812 148.433594 613.066406 161.265625 607.636719 172.988281 C 595.222656 138.003906 561.964844 112.710938 522.566406 112.710938 C 487.257812 112.710938 456.304688 133.964844 441.542969 164.085938 C 438.382812 154.835938 436.21875 145.21875 436.21875 135.199219 C 436.21875 85.597656 476.574219 45.242188 526.175781 45.242188 Z M 975.964844 859.363281 C 975.964844 877.21875 967.070312 893.734375 952.269531 903.488281 C 924.507812 921.5625 907.925781 952.15625 907.925781 985.296875 L 907.925781 1079.757812 L 530.109375 1079.757812 L 530.109375 1043.605469 C 530.109375 988.019531 499.425781 938.011719 450.023438 913.085938 C 438.371094 907.222656 428.105469 899.226562 419.496094 889.320312 L 357.109375 817.460938 C 304.136719 756.40625 243.289062 702.621094 176.273438 657.574219 C 166.335938 650.898438 163.378906 637.546875 169.550781 627.183594 C 186.828125 598.152344 226.660156 589.363281 254.335938 608.707031 L 441.851562 739.691406 C 448.726562 744.523438 457.710938 745.117188 465.132812 741.207031 C 472.566406 737.34375 477.222656 729.65625 477.222656 721.265625 L 477.222656 202.667969 C 477.222656 178.117188 498.054688 157.6875 522.566406 157.691406 C 547.691406 157.691406 568.125 177.863281 568.125 202.667969 L 568.125 629.96875 C 568.125 642.398438 578.195312 652.457031 590.613281 652.457031 C 603.035156 652.457031 613.105469 642.398438 613.105469 629.96875 C 613.105469 629.96875 613.105469 450.476562 613.105469 450.050781 C 613.105469 425.367188 634.222656 405.074219 658.652344 405.074219 C 683.667969 405.074219 704.007812 425.246094 704.007812 450.050781 L 704.007812 629.96875 C 704.007812 642.398438 714.066406 652.457031 726.496094 652.457031 C 738.925781 652.457031 748.984375 642.398438 748.984375 629.96875 C 748.984375 629.96875 748.984375 495.597656 748.984375 495.03125 C 748.984375 470.546875 770.417969 450.050781 794.535156 450.050781 C 819.660156 450.050781 840.085938 470.226562 840.085938 495.03125 L 840.085938 629.96875 C 840.085938 642.398438 850.144531 652.457031 862.574219 652.457031 C 875.003906 652.457031 885.0625 642.398438 885.0625 629.96875 C 885.0625 629.96875 885.0625 540.285156 885.0625 540.011719 C 885.0625 515.433594 906.0625 495.03125 930.414062 495.03125 C 955.539062 495.03125 975.964844 515.203125 975.964844 540.011719 Z M 975.964844 859.363281 " fill-opacity="1" fill-rule="nonzero"/></g><path fill="#ffffff" d="M 728.582031 989.800781 L 593.644531 989.800781 C 581.226562 989.800781 571.15625 999.859375 571.15625 1012.289062 C 571.15625 1024.71875 581.226562 1034.777344 593.644531 1034.777344 L 728.582031 1034.777344 C 741.011719 1034.777344 751.070312 1024.71875 751.070312 1012.289062 C 751.070312 999.859375 741.011719 989.800781 728.582031 989.800781 Z M 728.582031 989.800781 " fill-opacity="1" fill-rule="nonzero"/><path fill="#ffffff" d="M 841.027344 989.800781 L 818.539062 989.800781 C 806.109375 989.800781 796.050781 999.859375 796.050781 1012.289062 C 796.050781 1024.71875 806.109375 1034.777344 818.539062 1034.777344 L 841.027344 1034.777344 C 853.460938 1034.777344 863.519531 1024.71875 863.519531 1012.289062 C 863.519531 999.859375 853.460938 989.800781 841.027344 989.800781 Z M 841.027344 989.800781 " fill-opacity="1" fill-rule="nonzero"/></svg>