<svg xmlns="http://www.w3.org/2000/svg" xmlns:xlink="http://www.w3.org/1999/xlink" width="1500" zoomAndPan="magnify" viewBox="0 0 1125 1124.99995" height="1500" preserveAspectRatio="xMidYMid meet" version="1.0"><defs><clipPath id="947d342f91"><path d="M 87.1875 0 L 990 0 L 990 766 L 87.1875 766 Z M 87.1875 0 " clip-rule="nonzero"/></clipPath></defs><path fill="#ffffff" d="M 387.492188 824.441406 C 443.445312 712.910156 601.945312 739.765625 633.386719 833.308594 Z M 387.492188 824.441406 " fill-opacity="1" fill-rule="nonzero"/><path fill="#ffffff" d="M 510.921875 751.808594 C 506.398438 711.515625 530.363281 651.890625 549.738281 602.953125 C 552.710938 595.441406 555.644531 588.023438 558.394531 580.925781 C 559.816406 577.25 563.035156 574.566406 566.910156 573.828125 C 682.722656 551.789062 725.949219 504.148438 724.476562 505.738281 C 790.246094 434.660156 779.566406 390.054688 769.675781 346.132812 C 760.40625 304.960938 750.960938 262.363281 801.472656 207.769531 C 807.097656 201.695312 813.421875 195.503906 820.546875 189.152344 L 828.667969 209.09375 C 733.917969 213.386719 617.769531 289.082031 557.914062 374.847656 C 520.511719 428.445312 556.640625 514.335938 575.550781 557.824219 C 578.894531 565.519531 582.011719 572.613281 583.253906 577.015625 C 584.96875 583.089844 581.4375 589.402344 575.363281 591.117188 C 569.292969 592.828125 562.980469 589.296875 561.265625 583.226562 C 560.5625 580.730469 558.339844 575.542969 554.59375 566.933594 C 537.652344 527.96875 492.964844 427.992188 539.175781 361.773438 C 601.976562 271.789062 724.039062 190.960938 827.632812 186.265625 C 832.464844 186.046875 836.910156 188.890625 838.730469 193.371094 C 840.554688 197.847656 839.363281 202.988281 835.753906 206.207031 C 829.113281 212.128906 823.320312 217.804688 818.246094 223.289062 C 775.652344 269.320312 783.164062 302.007812 791.96875 341.113281 C 802.722656 388.875 814.152344 442.464844 741.25 521.257812 C 739.777344 522.847656 692.308594 573.222656 571.183594 596.273438 L 579.703125 589.175781 C 576.902344 596.40625 573.964844 603.832031 570.980469 611.363281 C 550.535156 663.019531 529.902344 716.066406 533.628906 749.257812 C 534.332031 755.53125 529.820312 761.183594 523.550781 761.886719 C 517.277344 762.589844 511.625 758.078125 510.921875 751.808594 Z M 510.921875 751.808594 " fill-opacity="1" fill-rule="nonzero"/><path fill="#ffffff" d="M 105.003906 941.1875 L 243.34375 839.324219 C 244.265625 838.648438 245.285156 838.125 246.367188 837.769531 C 313.539062 815.757812 389.8125 816.011719 474.507812 816.179688 C 486.039062 816.203125 497.609375 816.222656 509.503906 816.195312 C 619.285156 815.921875 663.242188 847.785156 664.863281 873.289062 C 664.890625 873.722656 664.90625 874.148438 664.90625 874.574219 L 664.90625 874.566406 C 664.921875 880.644531 662.035156 887.285156 655.125 890.265625 L 655.125 890.261719 C 630.164062 901.03125 584.519531 914.429688 516.867188 926.921875 C 511.035156 927.996094 505.429688 924.140625 504.355469 918.308594 C 503.277344 912.472656 507.132812 906.871094 512.96875 905.796875 C 579.972656 893.425781 623.804688 880.378906 646.617188 870.539062 C 643.851562 871.730469 643.421875 874.222656 643.425781 874.625 L 643.425781 874.617188 C 643.425781 874.628906 643.425781 874.652344 643.425781 874.652344 C 643.1875 870.914062 622.910156 837.394531 509.554688 837.675781 C 497.632812 837.707031 485.960938 837.683594 474.464844 837.660156 C 388.828125 837.492188 316.300781 837.457031 253.058594 858.183594 L 256.082031 856.625 L 117.742188 958.488281 C 112.964844 962.003906 106.242188 960.984375 102.726562 956.207031 C 99.207031 951.429688 100.230469 944.707031 105.003906 941.1875 Z M 105.003906 941.1875 " fill-opacity="1" fill-rule="nonzero"/><path fill="#ffffff" d="M 208.730469 1104.863281 C 243.542969 1071.1875 346.722656 1009.929688 361.808594 1005.046875 C 362.351562 1004.871094 363.0625 1004.660156 363.882812 1004.503906 C 365.085938 1004.273438 366.191406 1004.230469 366.957031 1004.226562 C 373.324219 1004.1875 389.316406 1007.6875 407.066406 1011.480469 C 452.53125 1021.195312 519.414062 1035.242188 550.40625 1029.320312 C 553.695312 1028.691406 556.15625 1027.898438 557.90625 1027.0625 C 793.949219 914.394531 872.777344 847.640625 874.683594 831.359375 C 874.683594 831.355469 874.675781 831.433594 874.679688 831.566406 L 874.679688 831.5625 C 874.660156 830.980469 869.960938 822.433594 843.027344 823.320312 C 825.082031 823.910156 802.871094 829.183594 781.78125 840.503906 C 692.269531 888.542969 628.46875 900.351562 627.625 900.503906 C 621.976562 901.539062 616.46875 898.089844 614.941406 892.550781 C 613.414062 887.015625 616.371094 881.226562 621.753906 879.21875 C 742.277344 834.289062 854.226562 767.308594 845.222656 743.164062 C 845.207031 743.125 845.183594 743.0625 845.167969 743.019531 L 845.164062 743.015625 C 842.414062 736.292969 837.402344 732.398438 817.40625 740.578125 C 799.085938 748.074219 775.660156 763.316406 748.433594 781.101562 C 715.976562 802.300781 678.851562 826.589844 642.503906 841.460938 C 635.589844 844.289062 628.660156 846.796875 621.746094 848.890625 C 616.3125 850.539062 610.511719 847.808594 608.316406 842.574219 C 606.117188 837.335938 608.234375 831.285156 613.21875 828.5625 C 698.898438 781.722656 731.125 747.144531 728.707031 738.492188 C 728.707031 738.496094 728.714844 738.515625 728.722656 738.53125 L 728.730469 738.546875 C 728.722656 738.53125 728.722656 738.53125 728.714844 738.519531 L 728.722656 738.53125 C 728.742188 738.5625 728.628906 738.339844 728.078125 737.941406 C 707.449219 723.019531 641.640625 770.398438 591.371094 808.867188 C 587.371094 811.925781 583.652344 814.773438 580.175781 817.402344 C 575.292969 821.09375 568.34375 820.128906 564.652344 815.246094 C 560.960938 810.363281 561.925781 803.414062 566.808594 799.722656 C 570.191406 797.164062 573.921875 794.308594 577.898438 791.265625 C 616.832031 761.472656 703.066406 692.496094 741.066406 719.980469 C 743.757812 721.929688 746.121094 724.371094 747.871094 727.367188 L 747.875 727.378906 C 747.980469 727.558594 748.0625 727.703125 748.160156 727.878906 L 748.171875 727.898438 C 748.976562 729.375 749.601562 730.917969 750.050781 732.523438 C 758.445312 762.558594 699.292969 806.765625 623.851562 848.011719 L 615.320312 827.679688 C 621.480469 825.816406 627.746094 823.550781 634.113281 820.949219 C 668.132812 807.03125 703.425781 784.023438 736.3125 762.542969 C 762.789062 745.25 788.269531 728.550781 809.011719 720.066406 C 829.882812 711.527344 854.949219 708.390625 865.679688 734.621094 L 865.675781 734.617188 C 865.773438 734.847656 865.902344 735.183594 865.992188 735.421875 C 884.9375 786.238281 732.898438 861.4375 629.496094 899.988281 L 623.625 878.703125 C 622.789062 878.859375 684.28125 867.675781 771.296875 820.972656 C 795.390625 808.042969 820.941406 801.871094 842.296875 801.167969 C 864.710938 800.429688 896.023438 806.269531 896.832031 830.832031 L 896.832031 830.828125 C 896.867188 831.898438 896.816406 832.925781 896.699219 833.9375 C 892.976562 865.714844 796.011719 937.96875 567.453125 1047.0625 C 563.503906 1048.949219 559.101562 1050.222656 554.570312 1051.089844 C 517.976562 1058.082031 445.3125 1042.316406 402.4375 1033.15625 C 382.617188 1028.921875 370.300781 1026.371094 367.085938 1026.390625 C 367 1026.390625 367.386719 1026.398438 368.046875 1026.273438 C 368.453125 1026.195312 368.679688 1026.117188 368.632812 1026.132812 L 368.636719 1026.132812 C 357.324219 1029.796875 256.980469 1089.023438 224.140625 1120.792969 C 219.742188 1125.050781 212.726562 1124.933594 208.46875 1120.535156 C 204.214844 1116.136719 204.332031 1109.121094 208.730469 1104.863281 Z M 208.730469 1104.863281 " fill-opacity="1" fill-rule="nonzero"/><path fill="#ffffff" d="M 530.476562 650.90625 C 528.75 609.460938 504.609375 492.277344 468.324219 470.273438 C 464.007812 467.65625 462.03125 462.429688 463.539062 457.609375 C 486.734375 383.460938 458.492188 347.488281 458.664062 347.710938 L 458.679688 347.730469 C 458.632812 347.667969 458.703125 347.757812 458.710938 347.769531 L 467.28125 340.910156 L 458.726562 347.789062 C 429.96875 312.011719 391.78125 297.882812 350.890625 282.996094 C 325.21875 273.652344 298.238281 263.886719 274.242188 247.679688 L 291.261719 240.066406 C 283.167969 299.414062 321.472656 440.628906 420.40625 454.121094 C 435.269531 456.148438 451.824219 455.421875 470.222656 451.035156 C 476.121094 449.628906 482.042969 453.273438 483.445312 459.171875 C 484.851562 465.066406 481.210938 470.988281 475.3125 472.394531 C 454.515625 477.351562 435.226562 478.300781 417.4375 475.875 C 298.765625 459.691406 261.082031 298.894531 269.507812 237.097656 C 270.019531 233.339844 272.441406 230.109375 275.902344 228.5625 C 279.367188 227.011719 283.386719 227.359375 286.53125 229.484375 C 307.914062 243.929688 332.285156 252.859375 358.398438 262.363281 C 398.683594 277.03125 442.722656 292.832031 475.839844 334.035156 L 467.28125 340.910156 L 475.855469 334.054688 C 475.925781 334.144531 475.914062 334.125 476.007812 334.25 L 476.023438 334.269531 C 479.28125 338.476562 510.261719 381.785156 484.492188 464.164062 L 479.707031 451.5 C 527.671875 480.585938 550.804688 611.382812 552.414062 649.992188 C 552.664062 656.050781 547.960938 661.167969 541.902344 661.417969 C 535.84375 661.671875 530.730469 656.964844 530.476562 650.90625 Z M 530.476562 650.90625 " fill-opacity="1" fill-rule="nonzero"/><path fill="#ffffff" d="M 527.363281 667.359375 C 513.851562 613.359375 490.582031 541.949219 454.414062 550.996094 C 453.863281 551.132812 453.316406 551.285156 452.742188 551.464844 L 452.746094 551.460938 C 438.046875 555.992188 439.605469 563.335938 439.859375 559.636719 C 439.804688 560.449219 439.65625 561.253906 439.425781 562.035156 C 393.539062 715.433594 250.882812 674.03125 249.550781 673.640625 L 249.511719 673.628906 C 249.511719 673.628906 249.558594 673.644531 249.566406 673.644531 C 245.5 672.46875 242.464844 669.070312 241.753906 664.894531 C 241.042969 660.71875 242.78125 656.507812 246.226562 654.046875 C 275.023438 633.515625 277.738281 617.277344 280.777344 601.238281 C 283.65625 586.046875 286.855469 569.011719 308.75 553.398438 L 308.753906 553.398438 C 309.378906 552.953125 310.027344 552.5 310.6875 552.054688 C 360.753906 518.207031 418.433594 526.59375 436.207031 552.878906 L 436.207031 552.882812 C 436.851562 553.835938 437.457031 554.835938 438 555.863281 C 440.851562 561.257812 438.789062 567.9375 433.398438 570.785156 C 428.007812 573.636719 421.324219 571.574219 418.476562 566.183594 C 418.324219 565.894531 418.132812 565.574219 417.910156 565.246094 L 417.910156 565.25 C 409.917969 553.425781 368.015625 539.953125 323.054688 570.351562 C 322.558594 570.6875 322.035156 571.050781 321.570312 571.382812 C 306.96875 581.796875 305.117188 591.40625 302.476562 605.347656 C 298.859375 624.4375 294.234375 646.941406 259.050781 672.03125 L 255.707031 652.433594 C 255.753906 652.445312 255.746094 652.445312 255.804688 652.460938 L 255.769531 652.449219 C 258.296875 653.191406 378.730469 687.871094 418.265625 555.707031 L 417.828125 558.105469 C 418.085938 554.40625 421.289062 538.046875 446.242188 530.359375 L 446.242188 530.355469 C 447.1875 530.066406 448.109375 529.808594 449.054688 529.574219 C 512.242188 513.765625 539.121094 623.363281 548.785156 662 C 550.265625 667.917969 546.667969 673.910156 540.753906 675.390625 C 534.835938 676.871094 528.839844 673.277344 527.363281 667.359375 Z M 527.363281 667.359375 " fill-opacity="1" fill-rule="nonzero"/><path fill="#ffffff" d="M 609.238281 478.941406 C 615.007812 468.511719 623.835938 447.457031 634.203125 427.082031 C 644.570312 406.710938 654.148438 385.480469 664.6875 363.273438 C 675.226562 341.066406 687.71875 318.121094 699.753906 301.894531 C 711.789062 285.671875 711.789062 285.671875 703.0625 295.925781 C 703.0625 295.925781 683.515625 314.734375 665.398438 333.839844 C 647.285156 352.945312 632.246094 373.566406 622.503906 396.253906 C 612.757812 418.941406 607.503906 442.535156 607.882812 454.796875 C 606.152344 478.367188 611.34375 467.632812 609.238281 478.941406 Z M 609.238281 478.941406 " fill-opacity="1" fill-rule="nonzero"/><path fill="#ffffff" d="M 626.050781 423.191406 C 627.464844 422.285156 630.210938 420.183594 633.488281 418.15625 C 636.761719 416.132812 640.570312 414.179688 644.886719 412.238281 C 649.199219 410.296875 654.027344 408.363281 659.140625 406.535156 C 664.25 404.707031 667.789062 399.421875 672.730469 396.46875 C 677.671875 393.515625 682.910156 390.585938 688.484375 387.769531 C 694.054688 384.953125 700.125 382.894531 704.886719 381.71875 C 709.652344 380.542969 709.652344 380.542969 706.476562 381.328125 C 706.476562 381.328125 700.125 382.894531 693.820312 383.953125 C 687.519531 385.011719 681.328125 385.976562 675.347656 387.21875 C 669.367188 388.460938 663.601562 389.984375 657.824219 391.335938 C 652.046875 392.6875 647.203125 396.152344 642.945312 399.597656 C 638.691406 403.039062 635.019531 406.4375 631.941406 409.78125 C 628.867188 413.121094 626.359375 416.363281 625.488281 418.148438 C 623.585938 421.25 627.085938 421.878906 626.050781 423.191406 Z M 626.050781 423.191406 " fill-opacity="1" fill-rule="nonzero"/><path fill="#ffffff" d="M 425.605469 396.566406 C 424.316406 395.105469 421.429688 392.59375 418.550781 389.894531 C 415.675781 387.199219 412.804688 384.324219 409.90625 381.304688 C 407.007812 378.289062 404.09375 375.109375 402.046875 372.914062 C 399.996094 370.714844 397.957031 368.339844 394.09375 363.710938 C 390.226562 359.082031 381.898438 355.167969 372.382812 348.5 C 362.867188 341.835938 350.960938 333.707031 341.964844 325.710938 C 332.96875 317.71875 332.96875 317.71875 338.757812 323.265625 C 338.757812 323.265625 349.714844 335.011719 357.902344 345.734375 C 366.09375 356.453125 372.726562 364.890625 377.839844 371.023438 C 382.957031 377.152344 387.308594 380.199219 389.519531 381.636719 C 391.730469 383.078125 395.527344 385.496094 399.414062 387.765625 C 403.300781 390.039062 407.136719 392.089844 410.925781 393.914062 C 414.710938 395.738281 418.417969 397.367188 420.414062 397.855469 C 424.03125 399.285156 423.980469 395.625 425.605469 396.566406 Z M 425.605469 396.566406 " fill-opacity="1" fill-rule="nonzero"/><path fill="#ffffff" d="M 374.4375 575.550781 C 372.46875 575.652344 368.09375 577.246094 362.742188 580.117188 C 357.386719 582.992188 351.085938 587.199219 346.21875 594.964844 C 341.351562 602.726562 335.597656 611.585938 329.992188 618.101562 C 324.382812 624.621094 324.382812 624.621094 328.160156 620.308594 C 328.160156 620.308594 335.816406 611.78125 343.707031 605.710938 C 351.601562 599.640625 359.105469 595.683594 363.324219 590.632812 C 367.546875 585.585938 371.109375 582.046875 372.488281 580.558594 C 375.46875 578.515625 372.835938 576.109375 374.4375 575.550781 Z M 374.4375 575.550781 " fill-opacity="1" fill-rule="nonzero"/><g clip-path="url(#947d342f91)"><path fill="#ffffff" d="M 211.234375 761.949219 L 186.378906 733.472656 C 186.160156 733.222656 185.949219 732.960938 185.753906 732.691406 L 163.433594 702.183594 C 163.238281 701.914062 163.054688 701.636719 162.878906 701.351562 L 143.265625 669.039062 C 143.09375 668.753906 142.933594 668.460938 142.785156 668.164062 L 126.019531 634.285156 C 125.871094 633.984375 125.738281 633.679688 125.613281 633.371094 L 111.824219 598.175781 C 111.699219 597.867188 111.59375 597.550781 111.5 597.230469 L 100.78125 560.980469 C 100.6875 560.664062 100.605469 560.339844 100.539062 560.011719 L 92.976562 522.976562 C 92.910156 522.648438 92.855469 522.320312 92.816406 521.988281 L 88.464844 484.441406 C 88.425781 484.109375 88.402344 483.777344 88.390625 483.445312 L 87.28125 445.660156 C 87.273438 445.328125 87.277344 444.992188 87.296875 444.660156 L 89.433594 406.921875 C 89.453125 406.589844 89.488281 406.257812 89.535156 405.925781 L 94.910156 368.511719 C 94.957031 368.179688 95.019531 367.851562 95.09375 367.527344 L 103.664062 330.710938 C 103.738281 330.386719 103.828125 330.066406 103.933594 329.75 L 115.632812 293.804688 C 115.738281 293.488281 115.855469 293.175781 115.984375 292.871094 L 130.730469 258.066406 C 130.859375 257.757812 131.003906 257.457031 131.160156 257.164062 L 148.84375 223.753906 C 148.996094 223.457031 149.164062 223.171875 149.347656 222.890625 L 169.835938 191.125 C 170.015625 190.84375 170.207031 190.574219 170.410156 190.308594 L 193.554688 160.421875 C 193.757812 160.15625 193.972656 159.902344 194.199219 159.65625 L 219.824219 131.867188 C 220.050781 131.621094 220.285156 131.386719 220.53125 131.164062 L 248.449219 105.675781 C 248.695312 105.453125 248.949219 105.238281 249.214844 105.035156 L 279.21875 82.042969 C 279.484375 81.839844 279.757812 81.648438 280.039062 81.472656 L 311.90625 61.140625 C 312.1875 60.960938 312.476562 60.796875 312.769531 60.640625 L 346.265625 43.125 C 346.5625 42.96875 346.863281 42.828125 347.171875 42.699219 L 382.050781 28.128906 C 382.359375 28 382.671875 27.882812 382.988281 27.78125 L 418.988281 16.261719 C 419.304688 16.160156 419.625 16.070312 419.949219 16 L 456.414062 7.683594 C 456.734375 7.609375 457.058594 7.550781 457.386719 7.503906 L 494.425781 2.320312 C 494.75 2.277344 495.078125 2.246094 495.410156 2.226562 L 532.753906 0.210938 C 533.082031 0.191406 533.414062 0.191406 533.742188 0.199219 L 571.125 1.367188 C 571.453125 1.375 571.785156 1.402344 572.109375 1.4375 L 609.257812 5.777344 C 609.585938 5.816406 609.910156 5.871094 610.234375 5.933594 L 646.878906 13.417969 C 647.203125 13.484375 647.523438 13.5625 647.839844 13.65625 L 683.714844 24.226562 C 684.03125 24.320312 684.34375 24.425781 684.648438 24.546875 L 719.496094 38.128906 C 719.804688 38.25 720.105469 38.382812 720.402344 38.527344 L 753.96875 55.023438 C 754.261719 55.167969 754.554688 55.324219 754.835938 55.496094 L 786.875 74.785156 C 787.160156 74.957031 787.433594 75.136719 787.703125 75.332031 L 817.988281 97.273438 C 818.253906 97.46875 818.511719 97.671875 818.761719 97.886719 L 847.074219 122.328125 C 847.324219 122.542969 847.5625 122.769531 847.792969 123.003906 L 873.925781 149.761719 C 874.15625 150 874.375 150.242188 874.585938 150.5 L 898.34375 179.378906 C 898.554688 179.636719 898.753906 179.898438 898.941406 180.171875 L 920.160156 210.96875 C 920.347656 211.238281 920.523438 211.519531 920.6875 211.804688 L 939.210938 244.296875 C 939.375 244.582031 939.527344 244.875 939.664062 245.175781 L 955.359375 279.121094 C 955.496094 279.421875 955.625 279.726562 955.734375 280.035156 L 968.488281 315.195312 C 968.601562 315.503906 968.699219 315.820312 968.785156 316.136719 L 978.503906 352.253906 C 978.589844 352.570312 978.660156 352.894531 978.71875 353.21875 L 985.332031 390.03125 C 985.390625 390.355469 985.433594 390.679688 985.464844 391.007812 L 988.921875 428.25 C 988.953125 428.578125 988.96875 428.90625 988.972656 429.238281 L 989.25 466.636719 C 989.253906 466.964844 989.242188 467.296875 989.21875 467.625 L 986.316406 504.910156 C 986.292969 505.238281 986.25 505.566406 986.199219 505.894531 L 980.136719 542.800781 C 979.097656 549.132812 973.121094 553.421875 966.789062 552.382812 C 960.457031 551.339844 956.167969 545.367188 957.207031 539.035156 L 963.269531 502.128906 L 963.148438 503.109375 L 966.050781 465.820312 L 966.015625 466.808594 L 965.734375 429.410156 L 965.785156 430.398438 L 962.328125 393.15625 L 962.460938 394.136719 L 955.847656 357.328125 L 956.0625 358.289062 L 946.347656 322.175781 L 946.644531 323.117188 L 933.890625 287.960938 L 934.269531 288.875 L 918.574219 254.925781 L 919.027344 255.804688 L 900.5 223.316406 L 901.027344 224.152344 L 879.804688 193.355469 L 880.402344 194.144531 L 856.640625 165.261719 L 857.300781 165.996094 L 831.167969 139.238281 L 831.890625 139.917969 L 803.578125 115.476562 L 804.355469 116.089844 L 774.066406 94.148438 L 774.890625 94.691406 L 742.851562 75.402344 L 743.71875 75.875 L 710.152344 59.382812 L 711.058594 59.777344 L 676.210938 46.195312 L 677.144531 46.515625 L 641.269531 35.945312 L 642.230469 36.183594 L 605.585938 28.703125 L 606.5625 28.859375 L 569.414062 24.519531 L 570.402344 24.589844 L 533.019531 23.425781 L 534.007812 23.414062 L 496.660156 25.429688 L 497.644531 25.335938 L 460.605469 30.519531 L 461.578125 30.339844 L 425.113281 38.652344 L 426.074219 38.390625 L 390.070312 49.914062 L 391.007812 49.566406 L 356.128906 64.140625 L 357.035156 63.714844 L 323.539062 81.230469 L 324.402344 80.730469 L 292.535156 101.0625 L 293.351562 100.488281 L 263.347656 123.480469 L 264.113281 122.839844 L 236.199219 148.324219 L 236.90625 147.621094 L 211.28125 175.410156 L 211.925781 174.644531 L 188.785156 204.535156 L 189.363281 203.71875 L 168.875 235.484375 L 169.378906 234.625 L 151.695312 268.03125 L 152.125 267.128906 L 137.378906 301.933594 L 137.730469 301 L 126.027344 336.941406 L 126.296875 335.980469 L 117.726562 372.796875 L 117.910156 371.816406 L 112.535156 409.230469 L 112.632812 408.238281 L 110.496094 445.976562 L 110.507812 444.976562 L 111.617188 482.761719 L 111.546875 481.765625 L 115.898438 519.3125 L 115.742188 518.328125 L 123.304688 555.363281 L 123.0625 554.394531 L 133.78125 590.644531 L 133.457031 589.699219 L 147.25 624.890625 L 146.84375 623.976562 L 163.609375 657.855469 L 163.128906 656.980469 L 182.746094 689.292969 L 182.191406 688.464844 L 204.507812 718.972656 L 203.882812 718.191406 L 228.742188 746.667969 C 232.960938 751.503906 232.460938 758.84375 227.628906 763.0625 C 222.792969 767.28125 215.453125 766.785156 211.234375 761.949219 Z M 211.234375 761.949219 " fill-opacity="1" fill-rule="nonzero"/></g><path fill="#ffffff" d="M 931.460938 506.6875 C 936.390625 515.773438 965.832031 548.785156 972.21875 552.855469 C 972.398438 552.972656 971.773438 552.527344 970.609375 552.171875 C 967.695312 551.277344 965.59375 552.070312 966.328125 551.875 C 974.089844 549.835938 1010.144531 525.800781 1015.210938 520.132812 L 1015.210938 520.136719 C 1015.390625 519.933594 1014.773438 520.550781 1014.1875 521.761719 C 1016.992188 515.988281 1023.941406 513.585938 1029.714844 516.390625 C 1035.484375 519.195312 1037.890625 526.144531 1035.085938 531.917969 C 1034.230469 533.675781 1033.097656 534.992188 1032.535156 535.621094 C 1025.15625 543.875 985.355469 570.898438 972.238281 574.347656 C 971.136719 574.636719 967.632812 575.558594 963.808594 574.390625 C 961.984375 573.832031 960.535156 572.964844 959.730469 572.453125 C 949.378906 565.855469 917.449219 529.585938 911.039062 517.769531 C 907.976562 512.128906 910.070312 505.078125 915.710938 502.015625 C 921.351562 498.957031 928.402344 501.046875 931.460938 506.6875 Z M 931.460938 506.6875 " fill-opacity="1" fill-rule="nonzero"/></svg>