<svg xmlns="http://www.w3.org/2000/svg" xmlns:xlink="http://www.w3.org/1999/xlink" width="1500" zoomAndPan="magnify" viewBox="0 0 1125 1124.99995" height="1500" preserveAspectRatio="xMidYMid meet" version="1.0"><defs><clipPath id="cbad608401"><path d="M 543 15.925781 L 567 15.925781 L 567 121 L 543 121 Z M 543 15.925781 " clip-rule="nonzero"/></clipPath><clipPath id="78ad818e1e"><path d="M 15.925781 543 L 121 543 L 121 567 L 15.925781 567 Z M 15.925781 543 " clip-rule="nonzero"/></clipPath></defs><path fill="#ffffff" d="M 565.765625 172.054688 L 642.097656 408.527344 L 891.488281 408.050781 C 903.21875 408.175781 907.050781 423.019531 897.695312 429.054688 L 696.164062 574.882812 L 773.679688 811.90625 C 777.949219 821.050781 764.835938 832.535156 755.242188 824 L 554.640625 677.660156 L 353.148438 824.644531 C 344.953125 831.511719 331.480469 822.191406 335.816406 811.238281 L 413.113281 574.882812 L 211.074219 428.6875 C 201.625 421.859375 207.375 407.027344 218.800781 408.050781 L 467.179688 408.527344 L 543.789062 171.203125 C 549.210938 159.371094 563.257812 161.488281 565.765625 172.054688 Z M 565.765625 172.054688 " fill-opacity="1" fill-rule="nonzero"/><g clip-path="url(#cbad608401)"><path fill="#ffffff" d="M 566.074219 17.351562 C 566.074219 11.039062 560.953125 5.921875 554.640625 5.921875 C 548.328125 5.921875 543.207031 11.039062 543.207031 17.351562 L 543.207031 108.890625 C 543.207031 115.203125 548.328125 120.324219 554.640625 120.324219 C 560.953125 120.324219 566.074219 115.203125 566.074219 108.890625 Z M 566.074219 17.351562 " fill-opacity="1" fill-rule="nonzero"/></g><path fill="#ffffff" d="M 833.152344 95.007812 C 836.285156 89.558594 834.40625 82.597656 828.953125 79.46875 C 823.503906 76.335938 816.546875 78.214844 813.414062 83.664062 L 767.648438 162.941406 C 764.515625 168.390625 766.394531 175.347656 771.84375 178.480469 C 777.292969 181.609375 784.25 179.730469 787.382812 174.28125 Z M 833.152344 95.007812 " fill-opacity="1" fill-rule="nonzero"/><path fill="#ffffff" d="M 1025.613281 295.867188 C 1031.066406 292.734375 1032.945312 285.777344 1029.8125 280.328125 C 1026.679688 274.875 1019.722656 272.996094 1014.273438 276.128906 L 935 321.898438 C 929.546875 325.03125 927.667969 331.988281 930.800781 337.4375 C 933.933594 342.886719 940.890625 344.765625 946.339844 341.632812 Z M 1025.613281 295.867188 " fill-opacity="1" fill-rule="nonzero"/><path fill="#ffffff" d="M 1091.925781 566.074219 C 1098.238281 566.074219 1103.359375 560.953125 1103.359375 554.640625 C 1103.359375 548.328125 1098.238281 543.207031 1091.925781 543.207031 L 1000.386719 543.207031 C 994.074219 543.207031 988.957031 548.328125 988.957031 554.640625 C 988.957031 560.953125 994.074219 566.074219 1000.386719 566.074219 Z M 1091.925781 566.074219 " fill-opacity="1" fill-rule="nonzero"/><path fill="#ffffff" d="M 1014.273438 833.152344 C 1019.722656 836.285156 1026.679688 834.40625 1029.8125 828.953125 C 1032.941406 823.503906 1031.0625 816.546875 1025.613281 813.414062 L 946.339844 767.648438 C 940.890625 764.515625 933.929688 766.394531 930.800781 771.84375 C 927.667969 777.292969 929.546875 784.25 934.996094 787.382812 Z M 1014.273438 833.152344 " fill-opacity="1" fill-rule="nonzero"/><path fill="#ffffff" d="M 813.414062 1025.613281 C 816.542969 1031.066406 823.503906 1032.945312 828.953125 1029.8125 C 834.402344 1026.679688 836.28125 1019.722656 833.148438 1014.273438 L 787.378906 935 C 784.25 929.546875 777.292969 927.667969 771.839844 930.800781 C 766.390625 933.933594 764.511719 940.890625 767.644531 946.339844 Z M 813.414062 1025.613281 " fill-opacity="1" fill-rule="nonzero"/><path fill="#ffffff" d="M 543.207031 1091.925781 C 543.207031 1098.238281 548.324219 1103.359375 554.636719 1103.359375 C 560.953125 1103.359375 566.070312 1098.238281 566.070312 1091.925781 L 566.070312 1000.386719 C 566.070312 994.074219 560.953125 988.957031 554.636719 988.957031 C 548.324219 988.957031 543.207031 994.074219 543.207031 1000.386719 Z M 543.207031 1091.925781 " fill-opacity="1" fill-rule="nonzero"/><path fill="#ffffff" d="M 276.125 1014.273438 C 272.996094 1019.722656 274.875 1026.679688 280.324219 1029.8125 C 285.773438 1032.941406 292.730469 1031.0625 295.863281 1025.613281 L 341.632812 946.339844 C 344.761719 940.890625 342.882812 933.929688 337.433594 930.800781 C 331.984375 927.667969 325.027344 929.546875 321.894531 934.996094 Z M 276.125 1014.273438 " fill-opacity="1" fill-rule="nonzero"/><path fill="#ffffff" d="M 83.664062 813.414062 C 78.214844 816.542969 76.335938 823.503906 79.464844 828.953125 C 82.597656 834.402344 89.554688 836.28125 95.003906 833.148438 L 174.28125 787.378906 C 179.730469 784.25 181.609375 777.292969 178.476562 771.839844 C 175.347656 766.390625 168.386719 764.511719 162.9375 767.644531 Z M 83.664062 813.414062 " fill-opacity="1" fill-rule="nonzero"/><g clip-path="url(#78ad818e1e)"><path fill="#ffffff" d="M 17.351562 543.207031 C 11.039062 543.207031 5.921875 548.324219 5.921875 554.636719 C 5.921875 560.949219 11.039062 566.070312 17.351562 566.070312 L 108.890625 566.070312 C 115.203125 566.070312 120.324219 560.949219 120.324219 554.636719 C 120.324219 548.324219 115.203125 543.207031 108.890625 543.207031 Z M 17.351562 543.207031 " fill-opacity="1" fill-rule="nonzero"/></g><path fill="#ffffff" d="M 95.007812 276.125 C 89.558594 272.996094 82.597656 274.875 79.46875 280.324219 C 76.335938 285.773438 78.214844 292.730469 83.664062 295.863281 L 162.941406 341.632812 C 168.390625 344.761719 175.347656 342.882812 178.480469 337.433594 C 181.609375 331.984375 179.730469 325.027344 174.28125 321.894531 Z M 95.007812 276.125 " fill-opacity="1" fill-rule="nonzero"/><path fill="#ffffff" d="M 295.867188 83.664062 C 292.734375 78.214844 285.777344 76.335938 280.328125 79.464844 C 274.875 82.597656 272.996094 89.554688 276.128906 95.003906 L 321.898438 174.28125 C 325.03125 179.730469 331.988281 181.609375 337.4375 178.476562 C 342.886719 175.347656 344.765625 168.386719 341.632812 162.9375 Z M 295.867188 83.664062 " fill-opacity="1" fill-rule="nonzero"/></svg>